<?xml version="1.0" encoding="UTF-8" standalone="no"?>
<svg
   width="100mm"
   height="99.999992mm"
   viewBox="0 0 100 99.999992"
   version="1.1"
   id="svg1"
   xml:space="preserve"
   xmlns="http://www.w3.org/2000/svg"
   xmlns:svg="http://www.w3.org/2000/svg"><defs
     id="defs1" /><g
     id="layer1"
     transform="translate(-54.999997,-98.500005)"><g
       id="g5"
       transform="matrix(4.4513518,0,0,4.4513518,-38.258443,-343.07307)"
       style="stroke-width:0.224651"><circle
         style="fill:#3d3d4d;fill-opacity:1;fill-rule:evenodd;stroke-width:0.673952;stroke-linecap:square;stroke-linejoin:bevel;stroke-dasharray:2.69579, 1.34791, 0.673952, 1.34791;paint-order:fill markers stroke"
         id="path5"
         cx="32.183132"
         cy="110.43231"
         r="11.232543" /><path
         id="path1"
         style="fill:#f2ca79;fill-opacity:1;stroke-width:0.359325"
         d="m 27.996859,107.26389 c 0.277244,-0.14928 0.554488,-0.14928 0.831731,0 0.277244,0.14928 0.490509,0.35722 0.639794,0.6238 0.149284,0.26658 0.197269,0.54382 0.143953,0.83173 -0.05331,0.28791 -0.271912,0.48518 -0.655788,0.59181 -0.341223,0.0853 -0.698441,0.17061 -1.071654,0.25592 -0.373212,0.0853 -0.725098,0.15994 -1.055658,0.22392 -0.33056,0.064 -0.613136,0.12264 -0.847726,0.17595 -0.234591,0.0533 -0.383876,0.08 -0.447856,0.08 0.04265,0 0.271912,0.0587 0.687778,0.17594 0.415866,0.11729 0.858389,0.30924 1.327571,0.57582 0.469182,0.26658 0.895711,0.6238 1.279586,1.07165 0.383876,0.44786 0.575814,1.01301 0.575814,1.69545 0,0.74643 -0.255917,1.33824 -0.767751,1.77543 -0.511835,0.43719 -1.108975,0.73043 -1.791422,0.87972 -0.426528,0.064 -0.837062,0.064 -1.231602,0 -0.394539,-0.064 -0.746425,-0.19727 -1.055658,-0.39987 -0.309234,-0.20261 -0.559819,-0.47985 -0.751757,-0.83174 -0.191938,-0.35188 -0.287907,-0.77308 -0.287907,-1.26359 0,-0.4052 0.13329,-0.7251 0.39987,-0.95969 0.266581,-0.23459 0.554488,-0.38387 0.863721,-0.44785 0.309234,-0.064 0.586477,-0.032 0.831731,0.096 0.245254,0.12795 0.346555,0.35188 0.303902,0.67178 -0.106632,0.66112 -0.07464,1.14096 0.09597,1.43953 0.170612,0.29857 0.341223,0.44786 0.511835,0.44786 0.213264,0 0.389207,-0.0746 0.527829,-0.22393 0.138623,-0.14928 0.218596,-0.34655 0.239923,-0.59181 0.02133,-0.24525 -0.02133,-0.5225 -0.127959,-0.83173 -0.106632,-0.30923 -0.277244,-0.6238 -0.511835,-0.94369 -0.191937,-0.27725 -0.43186,-0.52783 -0.719767,-0.75176 -0.287907,-0.22393 -0.575814,-0.41587 -0.863721,-0.57581 -0.287907,-0.15995 -0.570482,-0.28791 -0.847726,-0.38388 -0.277244,-0.096 -0.501171,-0.16528 -0.671783,-0.20793 -0.191938,-0.0427 -0.335891,-0.17595 -0.43186,-0.39987 -0.09597,-0.22393 -0.138622,-0.45852 -0.127959,-0.70378 0.01066,-0.24525 0.09597,-0.46918 0.255917,-0.67178 0.159949,-0.2026 0.399871,-0.3039 0.719768,-0.3039 0.639793,0 1.327571,-0.1013 2.063333,-0.3039 0.735762,-0.2026 1.39155,-0.47452 1.967364,-0.81574 z m 2.489996,-4.99039 c 0,-0.51183 0.138628,-0.86905 0.415866,-1.07165 0.277243,-0.2026 0.581145,-0.29324 0.911705,-0.27191 0.330561,0.0213 0.618468,0.13862 0.863721,0.35188 0.245254,0.21327 0.335892,0.49051 0.271912,0.83173 -0.04266,0.25592 -0.111963,0.75709 -0.207932,1.50352 -0.09597,0.74643 -0.186607,1.60481 -0.271912,2.57517 -0.0853,0.97035 -0.159949,1.97802 -0.223928,3.02302 -0.06398,1.045 -0.101295,2.01002 -0.111964,2.89506 -0.01072,0.88505 0.02132,1.61015 0.09597,2.1753 0.07465,0.56515 0.218597,0.84773 0.43186,0.84773 0.127959,0 0.303902,-0.23459 0.52783,-0.70378 0.223928,-0.46918 0.447855,-1.00234 0.671783,-1.59948 0.223927,-0.59714 0.43186,-1.17828 0.623798,-1.74343 0.191938,-0.56515 0.319897,-0.93304 0.383876,-1.10365 0.04266,-0.19194 0.138627,-0.31989 0.287907,-0.38387 0.14928,-0.064 0.293238,-0.08 0.431861,-0.048 0.138627,0.032 0.255917,0.10664 0.351886,0.22393 0.09597,0.11729 0.111964,0.27191 0.04798,0.46385 -0.127958,0.42653 -0.29857,1.02367 -0.511834,1.79142 -0.213264,0.76775 -0.479845,1.52484 -0.799742,2.27127 -0.319896,0.74642 -0.703772,1.39688 -1.151628,1.95137 -0.447855,0.55448 -0.981015,0.83173 -1.599483,0.83173 -0.575814,0 -1.007674,-0.3039 -1.295581,-0.91171 -0.287907,-0.6078 -0.485176,-1.38089 -0.591809,-2.31925 -0.106637,-0.93836 -0.143953,-1.98336 -0.111964,-3.13499 0.03199,-1.15162 0.09064,-2.27659 0.175944,-3.37491 0.0853,-1.09831 0.170612,-2.10065 0.255917,-3.00702 0.0853,-0.90638 0.127958,-1.59416 0.127958,-2.06334 z m 4.854044,4.09468 c 0,-0.4052 0.13863,-0.73576 0.41587,-0.99168 0.27724,-0.25592 0.57581,-0.43186 0.89571,-0.52783 0.3199,-0.096 0.60247,-0.10664 0.84773,-0.032 0.24525,0.0747 0.34655,0.25059 0.3039,0.52783 -0.0427,0.23459 -0.08,0.54383 -0.11197,0.9277 -0.032,0.38388 -0.0693,0.82107 -0.11196,1.31158 0.21326,-0.21327 0.48518,-0.4052 0.81574,-0.57582 0.33056,-0.17061 0.68778,-0.24525 1.07165,-0.22392 0.66112,0.0426 1.17829,0.2879 1.5515,0.73576 0.37321,0.44785 0.63446,0.98101 0.78375,1.59948 0.14928,0.61847 0.18127,1.27959 0.096,1.98336 -0.0853,0.70377 -0.26659,1.35423 -0.54383,1.95137 -0.27724,0.59714 -0.63446,1.08232 -1.07165,1.45553 -0.43719,0.37321 -0.9437,0.53849 -1.51951,0.49584 -0.38388,0 -0.76775,-0.12796 -1.15163,-0.38388 l -0.19194,-0.12796 -0.19194,-0.15994 c -0.0426,0.83173 -0.0693,1.60481 -0.08,2.31925 -0.0107,0.71443 -0.016,1.28491 -0.016,1.71144 0,0.23459 -0.12264,0.41587 -0.36789,0.54383 -0.24525,0.12796 -0.5065,0.19727 -0.78374,0.20793 -0.27725,0.0107 -0.53316,-0.0427 -0.76775,-0.15995 -0.2346,-0.11729 -0.33056,-0.3039 -0.28791,-0.55982 0.0427,-0.42653 0.0853,-0.99168 0.12796,-1.69545 0.0427,-0.70377 0.08,-1.47152 0.11196,-2.30325 0.032,-0.83174 0.0587,-1.68479 0.08,-2.55918 0.0213,-0.87438 0.0373,-1.68479 0.048,-2.43121 0.0107,-0.74643 0.0213,-1.39155 0.032,-1.93538 0.0107,-0.54382 0.016,-0.9117 0.016,-1.10364 z m 2.55918,2.68713 c -0.19194,0.44786 -0.32523,0.9277 -0.39987,1.43954 -0.0747,0.51183 -0.0907,0.99168 -0.048,1.43953 0.0427,0.44786 0.14928,0.83173 0.3199,1.15163 0.17061,0.3199 0.38387,0.50117 0.63979,0.54382 0.21327,0.0427 0.41054,-0.064 0.59181,-0.31989 0.18128,-0.25592 0.33056,-0.58115 0.44786,-0.97569 0.11729,-0.39454 0.20793,-0.83173 0.27191,-1.31157 0.064,-0.47985 0.08,-0.93304 0.048,-1.35956 -0.032,-0.42653 -0.10663,-0.78375 -0.22392,-1.07166 -0.11729,-0.28791 -0.29324,-0.44252 -0.52783,-0.46385 -0.2346,-0.0213 -0.44786,0.064 -0.6398,0.25592 -0.19194,0.19194 -0.35188,0.41586 -0.47984,0.67178 z" /></g></g></svg>
