<?xml version="1.0" encoding="UTF-8" standalone="no"?>
<!-- Created with Inkscape (http://www.inkscape.org/) -->

<svg
   width="113.50625mm"
   height="26.545473mm"
   viewBox="0 0 113.50625 26.545473"
   version="1.1"
   id="svg1"
   xml:space="preserve"
   xmlns="http://www.w3.org/2000/svg"
   xmlns:svg="http://www.w3.org/2000/svg"><defs
     id="defs1" /><g
     id="layer1"
     transform="translate(-38.915143,-52.766928)"><g
       id="g1"
       transform="matrix(0.32430357,0,0,0.32430357,38.915144,52.766927)"
       style="fill:#000000;fill-opacity:0.2"><g
         id="SvgjsG1205"
         featurekey="X3o6dM-0"
         transform="matrix(4.9320551,0,0,4.9320551,0.35017468,-53.256803)"
         fill="#ffffff"
         style="fill:#000000;fill-opacity:0.2"><path
           d="m 3.06,14.76 q 0.26,-0.14 0.52,0 0.26,0.14 0.4,0.39 0.14,0.25 0.09,0.52 Q 4.02,15.94 3.66,16.04 3.34,16.12 2.99,16.2 2.64,16.28 2.33,16.34 2.02,16.4 1.8,16.45 1.58,16.5 1.52,16.5 q 0.04,0 0.43,0.11 0.39,0.11 0.83,0.36 0.44,0.25 0.8,0.67 0.36,0.42 0.36,1.06 0,0.7 -0.48,1.11 -0.48,0.41 -1.12,0.55 -0.4,0.06 -0.77,0 Q 1.2,20.3 0.91,20.11 0.62,19.92 0.44,19.59 0.26,19.26 0.26,18.8 q 0,-0.38 0.25,-0.6 0.25,-0.22 0.54,-0.28 0.29,-0.06 0.52,0.06 0.23,0.12 0.19,0.42 -0.1,0.62 0.06,0.9 0.16,0.28 0.32,0.28 0.2,0 0.33,-0.14 Q 2.6,19.3 2.62,19.07 2.64,18.84 2.54,18.55 2.44,18.26 2.22,17.96 2.04,17.7 1.77,17.49 1.5,17.28 1.23,17.13 0.96,16.98 0.7,16.89 0.44,16.8 0.28,16.76 0.1,16.72 0.01,16.51 -0.08,16.3 -0.07,16.07 q 0.01,-0.23 0.16,-0.42 0.15,-0.19 0.45,-0.19 0.6,0 1.29,-0.19 0.69,-0.19 1.23,-0.51 z m 1.6,1.08 q 0,-0.48 0.25,-0.66 0.25,-0.18 0.55,-0.14 0.3,0.04 0.52,0.26 0.22,0.22 0.16,0.54 -0.08,0.36 -0.15,0.9 -0.07,0.54 -0.09,1.04 -0.02,0.5 0.03,0.86 0.05,0.36 0.23,0.36 0.12,0 0.29,-0.31 0.17,-0.31 0.33,-0.73 0.16,-0.42 0.3,-0.84 0.14,-0.42 0.18,-0.64 0.06,-0.2 0.2,-0.27 0.14,-0.07 0.27,-0.04 0.13,0.03 0.22,0.15 0.09,0.12 0.03,0.3 Q 7.94,16.74 7.85,17.07 7.76,17.4 7.62,17.8 7.48,18.2 7.29,18.63 7.1,19.06 6.85,19.39 6.6,19.72 6.3,19.9 6,20.08 5.64,19.98 5.1,19.82 4.87,19.39 4.64,18.96 4.6,18.39 4.56,17.82 4.61,17.15 4.66,16.48 4.66,15.84 Z M 6.94,13.1 Q 6.98,13.32 6.89,13.51 6.8,13.7 6.62,13.85 6.44,14 6.2,14.1 5.96,14.2 5.7,14.24 5.2,14.3 4.72,14.14 4.24,13.98 4.18,13.56 4.1,13.12 4.45,12.81 4.8,12.5 5.38,12.4 5.96,12.3 6.42,12.49 6.88,12.68 6.94,13.1 Z M 7.6,11.64 q 0,-0.48 0.26,-0.67 0.26,-0.19 0.57,-0.17 0.31,0.02 0.54,0.22 0.23,0.2 0.17,0.52 -0.04,0.24 -0.13,0.94 -0.09,0.7 -0.17,1.61 -0.08,0.91 -0.14,1.89 -0.06,0.98 -0.07,1.81 -0.01,0.83 0.06,1.36 0.07,0.53 0.27,0.53 0.12,0 0.33,-0.44 0.21,-0.44 0.42,-1 0.21,-0.56 0.39,-1.09 0.18,-0.53 0.24,-0.69 0.04,-0.18 0.18,-0.24 0.14,-0.06 0.27,-0.03 0.13,0.03 0.22,0.14 0.09,0.11 0.03,0.29 -0.12,0.4 -0.32,1.12 -0.2,0.72 -0.5,1.42 -0.3,0.7 -0.72,1.22 -0.42,0.52 -1,0.52 -0.54,0 -0.81,-0.57 Q 7.42,19.76 7.32,18.88 7.22,18 7.25,16.92 7.28,15.84 7.36,14.81 7.44,13.78 7.52,12.93 7.6,12.08 7.6,11.64 Z m 3.08,0 q 0,-0.48 0.26,-0.67 0.26,-0.19 0.57,-0.17 0.31,0.02 0.54,0.22 0.23,0.2 0.17,0.52 -0.04,0.24 -0.13,0.94 -0.09,0.7 -0.17,1.61 -0.08,0.91 -0.14,1.89 -0.06,0.98 -0.07,1.81 -0.01,0.83 0.06,1.36 0.07,0.53 0.27,0.53 0.12,0 0.33,-0.44 0.21,-0.44 0.42,-1 0.21,-0.56 0.39,-1.09 0.18,-0.53 0.24,-0.69 0.04,-0.18 0.18,-0.24 0.14,-0.06 0.27,-0.03 0.13,0.03 0.22,0.14 0.09,0.11 0.03,0.29 -0.12,0.4 -0.32,1.12 -0.2,0.72 -0.5,1.42 -0.3,0.7 -0.72,1.22 -0.42,0.52 -1,0.52 -0.54,0 -0.81,-0.57 Q 10.5,19.76 10.4,18.88 10.3,18 10.33,16.92 q 0.03,-1.08 0.11,-2.11 0.08,-1.03 0.16,-1.88 0.08,-0.85 0.08,-1.29 z m 6.44,10.78 q 0,0.4 -0.26,0.72 -0.26,0.32 -0.57,0.48 -0.31,0.16 -0.56,0.12 -0.25,-0.04 -0.21,-0.38 0.02,-0.26 0.05,-0.74 0.03,-0.48 0.07,-1.08 0.04,-0.6 0.07,-1.29 0.03,-0.69 0.07,-1.39 -0.2,0.54 -0.56,0.92 -0.2,0.2 -0.47,0.22 -0.27,0.02 -0.52,-0.1 -0.25,-0.12 -0.45,-0.35 -0.2,-0.23 -0.26,-0.53 -0.06,-0.3 -0.08,-0.8 -0.02,-0.5 -0.02,-1.08 0,-0.58 0.02,-1.19 0.02,-0.61 0.02,-1.17 0.02,-0.36 0.27,-0.53 0.25,-0.17 0.55,-0.2 0.3,-0.03 0.55,0.08 0.25,0.11 0.23,0.33 -0.04,0.64 -0.1,1.38 -0.06,0.74 -0.11,1.39 -0.05,0.65 -0.04,1.1 0.01,0.45 0.13,0.49 0.12,0.04 0.23,-0.16 0.11,-0.2 0.22,-0.54 0.11,-0.34 0.21,-0.75 0.1,-0.41 0.17,-0.8 0.07,-0.39 0.12,-0.7 0.05,-0.31 0.05,-0.45 0.24,-0.12 0.31,0 0.07,0.12 0.13,0.44 0.02,0.08 0.01,0.39 -0.01,0.31 -0.08,0.74 -0.07,0.43 -0.2,0.93 -0.13,0.5 -0.33,0.94 0.06,-1.1 0.1,-2.09 0.04,-0.99 0.06,-1.57 0,-0.24 0.24,-0.37 0.24,-0.13 0.52,-0.14 0.28,-0.01 0.5,0.11 0.22,0.12 0.2,0.36 -0.06,0.42 -0.1,1.08 -0.04,0.66 -0.07,1.41 -0.03,0.75 -0.05,1.52 -0.02,0.77 -0.03,1.43 -0.01,0.66 -0.02,1.15 -0.01,0.49 -0.01,0.67 z m 5.1,-10.78 q 0,-0.48 0.26,-0.67 0.26,-0.19 0.57,-0.17 0.31,0.02 0.54,0.22 0.23,0.2 0.17,0.52 -0.04,0.24 -0.13,0.94 -0.09,0.7 -0.17,1.61 -0.08,0.91 -0.14,1.89 -0.06,0.98 -0.07,1.81 -0.01,0.83 0.06,1.36 0.07,0.53 0.27,0.53 0.12,0 0.33,-0.44 0.21,-0.44 0.42,-1 0.21,-0.56 0.39,-1.09 0.18,-0.53 0.24,-0.69 0.04,-0.18 0.18,-0.24 0.14,-0.06 0.27,-0.03 0.13,0.03 0.22,0.14 0.09,0.11 0.03,0.29 -0.12,0.4 -0.32,1.12 -0.2,0.72 -0.5,1.42 -0.3,0.7 -0.72,1.22 -0.42,0.52 -1,0.52 -0.54,0 -0.81,-0.57 -0.27,-0.57 -0.37,-1.45 -0.1,-0.88 -0.07,-1.96 0.03,-1.08 0.11,-2.11 0.08,-1.03 0.16,-1.88 0.08,-0.85 0.08,-1.29 z m 2.76,4.2 q 0,-0.48 0.25,-0.66 0.25,-0.18 0.55,-0.14 0.3,0.04 0.52,0.26 0.22,0.22 0.16,0.54 -0.08,0.36 -0.15,0.9 -0.07,0.54 -0.09,1.04 -0.02,0.5 0.03,0.86 0.05,0.36 0.23,0.36 0.12,0 0.29,-0.31 0.17,-0.31 0.33,-0.73 0.16,-0.42 0.3,-0.84 0.14,-0.42 0.18,-0.64 0.06,-0.2 0.2,-0.27 0.14,-0.07 0.27,-0.04 0.13,0.03 0.22,0.15 0.09,0.12 0.03,0.3 -0.04,0.12 -0.13,0.45 -0.09,0.33 -0.23,0.73 -0.14,0.4 -0.33,0.83 -0.19,0.43 -0.44,0.76 -0.25,0.33 -0.55,0.51 -0.3,0.18 -0.66,0.08 -0.54,-0.16 -0.77,-0.59 -0.23,-0.43 -0.27,-1 -0.04,-0.57 0.01,-1.24 0.05,-0.67 0.05,-1.31 z m 2.28,-2.74 q 0.04,0.22 -0.05,0.41 -0.09,0.19 -0.27,0.34 -0.18,0.15 -0.42,0.25 -0.24,0.1 -0.5,0.14 -0.5,0.06 -0.98,-0.1 -0.48,-0.16 -0.54,-0.58 -0.08,-0.44 0.27,-0.75 0.35,-0.31 0.93,-0.41 0.58,-0.1 1.04,0.09 0.46,0.19 0.52,0.61 z m 0.54,0.34 q 0,-0.14 0.01,-0.27 0.01,-0.13 0.01,-0.23 0,-0.48 0.26,-0.67 0.26,-0.19 0.56,-0.17 0.3,0.02 0.53,0.22 0.23,0.2 0.17,0.52 l -0.1,0.52 h 0.48 q 0.38,0 0.55,0.13 0.17,0.13 0.17,0.28 0,0.15 -0.18,0.27 -0.18,0.12 -0.5,0.12 h -0.6 q -0.08,0.72 -0.14,1.59 -0.06,0.87 -0.08,1.64 -0.02,0.77 0.02,1.28 0.04,0.51 0.18,0.51 0.12,0 0.33,-0.36 0.21,-0.36 0.43,-0.83 0.22,-0.47 0.4,-0.92 0.18,-0.45 0.24,-0.61 0.04,-0.18 0.18,-0.24 0.14,-0.06 0.27,-0.03 0.13,0.03 0.22,0.14 0.09,0.11 0.03,0.29 -0.12,0.4 -0.32,1.04 -0.2,0.64 -0.5,1.24 -0.3,0.6 -0.72,1.04 -0.42,0.44 -1,0.44 -0.38,0 -0.62,-0.3 -0.24,-0.3 -0.36,-0.79 -0.12,-0.49 -0.15,-1.13 -0.03,-0.64 -0.01,-1.32 0.02,-0.68 0.08,-1.37 0.06,-0.69 0.1,-1.27 h -0.48 q -0.32,0 -0.49,-0.12 -0.17,-0.12 -0.18,-0.26 -0.01,-0.14 0.15,-0.26 0.16,-0.12 0.52,-0.12 z m 2.94,0 q 0,-0.14 0.01,-0.27 0.01,-0.13 0.01,-0.23 0,-0.48 0.26,-0.67 0.26,-0.19 0.56,-0.17 0.3,0.02 0.53,0.22 0.23,0.2 0.17,0.52 l -0.1,0.52 h 0.48 q 0.38,0 0.55,0.13 0.17,0.13 0.17,0.28 0,0.15 -0.18,0.27 -0.18,0.12 -0.5,0.12 h -0.6 q -0.08,0.72 -0.14,1.59 -0.06,0.87 -0.08,1.64 -0.02,0.77 0.02,1.28 0.04,0.51 0.18,0.51 0.12,0 0.33,-0.36 0.21,-0.36 0.43,-0.83 0.22,-0.47 0.4,-0.92 0.18,-0.45 0.24,-0.61 0.04,-0.18 0.18,-0.24 0.14,-0.06 0.27,-0.03 0.13,0.03 0.22,0.14 0.09,0.11 0.03,0.29 -0.12,0.4 -0.32,1.04 -0.2,0.64 -0.5,1.24 -0.3,0.6 -0.72,1.04 -0.42,0.44 -1,0.44 -0.38,0 -0.62,-0.3 -0.24,-0.3 -0.36,-0.79 -0.12,-0.49 -0.15,-1.13 -0.03,-0.64 -0.01,-1.32 0.02,-0.68 0.08,-1.37 0.06,-0.69 0.1,-1.27 H 30.2 q -0.32,0 -0.49,-0.12 -0.17,-0.12 -0.18,-0.26 -0.01,-0.14 0.15,-0.26 0.16,-0.12 0.52,-0.12 z m 3.06,-1.8 q 0,-0.48 0.26,-0.67 0.26,-0.19 0.57,-0.17 0.31,0.02 0.54,0.22 0.23,0.2 0.17,0.52 -0.04,0.24 -0.13,0.94 -0.09,0.7 -0.17,1.61 -0.08,0.91 -0.14,1.89 -0.06,0.98 -0.07,1.81 -0.01,0.83 0.06,1.36 0.07,0.53 0.27,0.53 0.12,0 0.33,-0.44 0.21,-0.44 0.42,-1 0.21,-0.56 0.39,-1.09 0.18,-0.53 0.24,-0.69 0.04,-0.18 0.18,-0.24 0.14,-0.06 0.27,-0.03 0.13,0.03 0.22,0.14 0.09,0.11 0.03,0.29 -0.12,0.4 -0.32,1.12 -0.2,0.72 -0.5,1.42 -0.3,0.7 -0.72,1.22 -0.42,0.52 -1,0.52 -0.54,0 -0.81,-0.57 -0.27,-0.57 -0.37,-1.45 -0.1,-0.88 -0.07,-1.96 0.03,-1.08 0.11,-2.11 0.08,-1.03 0.16,-1.88 0.08,-0.85 0.08,-1.29 z m 6.06,4.86 q -0.16,0.22 -0.4,0.36 -0.24,0.14 -0.52,0.23 -0.28,0.09 -0.57,0.13 -0.29,0.04 -0.51,0.06 -0.06,0.42 -0.07,0.82 -0.01,0.4 0.04,0.72 0.05,0.32 0.16,0.54 0.11,0.22 0.31,0.28 0.26,0.08 0.56,-0.09 0.3,-0.17 0.58,-0.47 0.28,-0.3 0.54,-0.7 0.26,-0.4 0.46,-0.77 0.2,-0.37 0.34,-0.68 0.14,-0.31 0.18,-0.45 0.06,-0.18 0.19,-0.24 0.13,-0.06 0.25,-0.04 0.12,0.02 0.2,0.13 0.08,0.11 0.04,0.29 -0.04,0.12 -0.14,0.47 -0.1,0.35 -0.29,0.79 -0.19,0.44 -0.46,0.91 -0.27,0.47 -0.65,0.86 -0.38,0.39 -0.87,0.65 -0.49,0.26 -1.09,0.26 -0.72,0 -1.12,-0.5 -0.4,-0.5 -0.54,-1.26 -0.14,-0.76 -0.05,-1.63 0.09,-0.87 0.36,-1.63 0.27,-0.76 0.68,-1.26 0.41,-0.5 0.91,-0.5 0.48,0 0.85,0.33 0.37,0.33 0.57,0.77 0.2,0.44 0.23,0.9 0.03,0.46 -0.17,0.72 z m -1.24,-1.78 q -0.14,0.06 -0.3,0.51 -0.16,0.45 -0.3,1.09 0.22,0 0.44,-0.05 0.22,-0.05 0.32,-0.21 0.08,-0.12 0.1,-0.35 0.02,-0.23 -0.01,-0.47 -0.03,-0.24 -0.1,-0.4 -0.07,-0.16 -0.15,-0.12 z m 5.96,-0.52 q 0,-0.38 0.26,-0.62 0.26,-0.24 0.56,-0.33 0.3,-0.09 0.53,-0.02 0.23,0.07 0.19,0.33 -0.04,0.22 -0.07,0.58 -0.03,0.36 -0.07,0.82 0.2,-0.2 0.51,-0.36 0.31,-0.16 0.67,-0.14 0.62,0.04 0.97,0.46 0.35,0.42 0.49,1 0.14,0.58 0.06,1.24 -0.08,0.66 -0.34,1.22 -0.26,0.56 -0.67,0.91 -0.41,0.35 -0.95,0.31 -0.36,0 -0.72,-0.24 l -0.12,-0.08 q 0,0 -0.12,-0.1 -0.04,0.78 -0.05,1.45 -0.01,0.67 -0.01,1.07 0,0.22 -0.23,0.34 -0.23,0.12 -0.49,0.13 -0.26,0.01 -0.48,-0.1 -0.22,-0.11 -0.18,-0.35 0.04,-0.4 0.08,-1.06 0.04,-0.66 0.07,-1.44 0.03,-0.78 0.05,-1.6 0.02,-0.82 0.03,-1.52 0.01,-0.7 0.02,-1.21 0.01,-0.51 0.01,-0.69 z m 1.6,1.68 q -0.18,0.42 -0.25,0.9 -0.07,0.48 -0.03,0.9 0.04,0.42 0.2,0.72 0.16,0.3 0.4,0.34 0.2,0.04 0.37,-0.2 0.17,-0.24 0.28,-0.61 0.11,-0.37 0.17,-0.82 0.06,-0.45 0.03,-0.85 -0.03,-0.4 -0.14,-0.67 -0.11,-0.27 -0.33,-0.29 -0.22,-0.02 -0.4,0.16 -0.18,0.18 -0.3,0.42 z m 6.32,0.62 q -0.16,0.22 -0.4,0.36 -0.24,0.14 -0.52,0.23 -0.28,0.09 -0.57,0.13 -0.29,0.04 -0.51,0.06 -0.06,0.42 -0.07,0.82 -0.01,0.4 0.04,0.72 0.05,0.32 0.16,0.54 0.11,0.22 0.31,0.28 0.26,0.08 0.56,-0.09 0.3,-0.17 0.58,-0.47 0.28,-0.3 0.54,-0.7 0.26,-0.4 0.46,-0.77 0.2,-0.37 0.34,-0.68 0.14,-0.31 0.18,-0.45 0.06,-0.18 0.19,-0.24 0.13,-0.06 0.25,-0.04 0.12,0.02 0.2,0.13 0.08,0.11 0.04,0.29 -0.04,0.12 -0.14,0.47 -0.1,0.35 -0.29,0.79 -0.19,0.44 -0.46,0.91 -0.27,0.47 -0.65,0.86 -0.38,0.39 -0.87,0.65 -0.49,0.26 -1.09,0.26 -0.72,0 -1.12,-0.5 -0.4,-0.5 -0.54,-1.26 -0.14,-0.76 -0.05,-1.63 0.09,-0.87 0.36,-1.63 0.27,-0.76 0.68,-1.26 0.41,-0.5 0.91,-0.5 0.48,0 0.85,0.33 0.37,0.33 0.57,0.77 0.2,0.44 0.23,0.9 0.03,0.46 -0.17,0.72 z m -1.24,-1.78 q -0.14,0.06 -0.3,0.51 -0.16,0.45 -0.3,1.09 0.22,0 0.44,-0.05 0.22,-0.05 0.32,-0.21 0.08,-0.12 0.1,-0.35 0.02,-0.23 -0.01,-0.47 -0.03,-0.24 -0.1,-0.4 -0.07,-0.16 -0.15,-0.12 z m 4.16,4.76 q -0.74,0 -1.18,-0.38 -0.44,-0.38 -0.61,-0.94 -0.17,-0.56 -0.1,-1.22 0.07,-0.66 0.34,-1.21 0.27,-0.55 0.71,-0.91 0.44,-0.36 1.04,-0.32 0.7,0.04 1.14,0.42 0.44,0.38 0.64,0.94 0.2,0.56 0.17,1.19 -0.03,0.63 -0.29,1.17 -0.26,0.54 -0.73,0.9 -0.47,0.36 -1.13,0.36 z m 0.26,-0.9 q 0.22,0.02 0.36,-0.21 0.14,-0.23 0.2,-0.6 0.06,-0.37 0.05,-0.81 -0.01,-0.44 -0.1,-0.82 -0.09,-0.38 -0.25,-0.64 -0.16,-0.26 -0.38,-0.26 -0.2,0 -0.34,0.24 -0.14,0.24 -0.21,0.6 -0.07,0.36 -0.07,0.79 0,0.43 0.08,0.8 0.08,0.37 0.24,0.63 0.16,0.26 0.42,0.28 z M 58.1,14.2 q 0,-0.38 0.26,-0.62 0.26,-0.24 0.56,-0.33 0.3,-0.09 0.53,-0.02 0.23,0.07 0.19,0.33 -0.04,0.22 -0.07,0.58 -0.03,0.36 -0.07,0.82 0.2,-0.2 0.51,-0.36 0.31,-0.16 0.67,-0.14 0.62,0.04 0.97,0.46 0.35,0.42 0.49,1 0.14,0.58 0.06,1.24 -0.08,0.66 -0.34,1.22 -0.26,0.56 -0.67,0.91 -0.41,0.35 -0.95,0.31 -0.36,0 -0.72,-0.24 L 59.4,19.28 q 0,0 -0.12,-0.1 -0.04,0.78 -0.05,1.45 -0.01,0.67 -0.01,1.07 0,0.22 -0.23,0.34 -0.23,0.12 -0.49,0.13 -0.26,0.01 -0.48,-0.1 -0.22,-0.11 -0.18,-0.35 0.04,-0.4 0.08,-1.06 0.04,-0.66 0.07,-1.44 0.03,-0.78 0.05,-1.6 0.02,-0.82 0.03,-1.52 0.01,-0.7 0.02,-1.21 0.01,-0.51 0.01,-0.69 z m 1.6,1.68 q -0.18,0.42 -0.25,0.9 -0.07,0.48 -0.03,0.9 0.04,0.42 0.2,0.72 0.16,0.3 0.4,0.34 0.2,0.04 0.37,-0.2 0.17,-0.24 0.28,-0.61 0.11,-0.37 0.17,-0.82 0.06,-0.45 0.03,-0.85 -0.03,-0.4 -0.14,-0.67 -0.11,-0.27 -0.33,-0.29 -0.22,-0.02 -0.4,0.16 -0.18,0.18 -0.3,0.42 z m 3.34,-4.24 q 0,-0.48 0.26,-0.67 0.26,-0.19 0.57,-0.17 0.31,0.02 0.54,0.22 0.23,0.2 0.17,0.52 -0.04,0.24 -0.13,0.94 -0.09,0.7 -0.17,1.61 -0.08,0.91 -0.14,1.89 -0.06,0.98 -0.07,1.81 -0.01,0.83 0.06,1.36 0.07,0.53 0.27,0.53 0.12,0 0.33,-0.44 0.21,-0.44 0.42,-1 0.21,-0.56 0.39,-1.09 0.18,-0.53 0.24,-0.69 0.04,-0.18 0.18,-0.24 0.14,-0.06 0.27,-0.03 0.13,0.03 0.22,0.14 0.09,0.11 0.03,0.29 -0.12,0.4 -0.32,1.12 -0.2,0.72 -0.5,1.42 -0.3,0.7 -0.72,1.22 -0.42,0.52 -1,0.52 -0.54,0 -0.81,-0.57 -0.27,-0.57 -0.37,-1.45 -0.1,-0.88 -0.07,-1.96 0.03,-1.08 0.11,-2.11 0.08,-1.03 0.16,-1.88 0.08,-0.85 0.08,-1.29 z m 6.06,4.86 q -0.16,0.22 -0.4,0.36 -0.24,0.14 -0.52,0.23 -0.28,0.09 -0.57,0.13 -0.29,0.04 -0.51,0.06 -0.06,0.42 -0.07,0.82 -0.01,0.4 0.04,0.72 0.05,0.32 0.16,0.54 0.11,0.22 0.31,0.28 0.26,0.08 0.56,-0.09 0.3,-0.17 0.58,-0.47 0.28,-0.3 0.54,-0.7 0.26,-0.4 0.46,-0.77 0.2,-0.37 0.34,-0.68 0.14,-0.31 0.18,-0.45 0.06,-0.18 0.19,-0.24 0.13,-0.06 0.25,-0.04 0.12,0.02 0.2,0.13 0.08,0.11 0.04,0.29 -0.04,0.12 -0.14,0.47 -0.1,0.35 -0.29,0.79 -0.19,0.44 -0.46,0.91 -0.27,0.47 -0.65,0.86 -0.38,0.39 -0.87,0.65 -0.49,0.26 -1.09,0.26 -0.72,0 -1.12,-0.5 -0.4,-0.5 -0.54,-1.26 -0.14,-0.76 -0.05,-1.63 0.09,-0.87 0.36,-1.63 0.27,-0.76 0.68,-1.26 0.41,-0.5 0.91,-0.5 0.48,0 0.85,0.33 0.37,0.33 0.57,0.77 0.2,0.44 0.23,0.9 0.03,0.46 -0.17,0.72 z m -1.24,-1.78 q -0.14,0.06 -0.3,0.51 -0.16,0.45 -0.3,1.09 0.22,0 0.44,-0.05 0.22,-0.05 0.32,-0.21 0.08,-0.12 0.1,-0.35 0.02,-0.23 -0.01,-0.47 -0.03,-0.24 -0.1,-0.4 -0.07,-0.16 -0.15,-0.12 z"
           id="path1"
           style="fill:#000000;fill-opacity:0.2" /></g><g
         id="SvgjsG1206"
         featurekey="RFbU7s-0"
         transform="matrix(0.54015026,0,0,0.54015026,71.351819,70.888735)"
         fill="#ffffff"
         style="fill:#000000;fill-opacity:0.2"><path
           d="m 8.68,12.26 c 1.58,0.4 2.94,1.76 2.94,3.66 0,2.54 -1.6,4.08 -5.1,4.08 H 1.2 V 6 h 5.1 c 2.88,0 4.32,1.62 4.32,3.48 0,1.46 -0.92,2.36 -1.94,2.78 z M 6.08,8.3 H 3.82 v 3.18 h 2.26 c 1.32,0 1.94,-0.66 1.94,-1.6 0,-1 -0.66,-1.58 -1.94,-1.58 z M 6.4,17.7 C 8.18,17.7 9,16.96 9,15.62 9,14.46 8.18,13.6 6.32,13.6 h -2.5 v 4.1 z M 38.58,20 37.42,17.3 H 30.5 L 29.34,20 H 26.56 L 32.8,6 h 2.34 l 6.22,14 z M 31.42,15.16 H 36.5 L 33.96,9.24 Z m 29.9,-9.4 c 2.38,0 3.96,1.52 4.66,2.9 L 64.04,9.8 C 63.3,8.7 62.5,8.08 61.32,8.08 c -1.12,0 -1.92,0.66 -1.92,1.56 0,0.86 0.52,1.36 1.72,1.8 l 0.96,0.36 c 2.98,1.06 4.28,2.36 4.28,4.36 0,2.72 -2.58,4.14 -4.96,4.14 -2.5,0 -4.46,-1.48 -5.1,-3.44 l 2.02,-1.06 c 0.5,1.12 1.44,2.12 3.08,2.12 1.24,0 2.24,-0.6 2.24,-1.72 0,-1.14 -0.72,-1.64 -2.28,-2.22 l -0.9,-0.32 C 58.38,12.9 56.8,11.86 56.8,9.54 c 0,-2.2 2.02,-3.78 4.52,-3.78 z M 84.72,6 V 20 H 82.1 V 6 Z m 27.96,12.5 c -1.26,1.1 -2.9,1.7 -4.76,1.7 -3.84,0 -7.26,-2.96 -7.26,-7.2 0,-4.24 3.42,-7.2 7.26,-7.2 1.84,0 3.46,0.6 4.68,1.66 l -1.58,1.8 c -0.8,-0.6 -1.86,-1 -2.94,-1 -2.6,0 -4.7,1.98 -4.7,4.74 0,2.76 2.1,4.74 4.7,4.74 1.1,0 2.2,-0.42 3.02,-1.08 z m 46.8,1.5 -1.16,-2.7 h -6.92 l -1.16,2.7 h -2.78 L 153.7,6 h 2.34 l 6.22,14 z m -7.16,-4.84 h 5.08 l -2.54,-5.92 z m 38.58,-2.52 c 0.54,4.66 -2.52,7.56 -6.26,7.56 -3.92,0 -7.24,-2.96 -7.24,-7.2 0,-4.24 3.4,-7.2 7.24,-7.2 1.82,0 3.46,0.6 4.68,1.66 l -1.58,1.8 c -0.8,-0.6 -1.86,-1 -2.94,-1 -2.62,0 -4.68,1.98 -4.68,4.74 0,2.76 2,4.74 4.52,4.74 2,0 3.42,-0.8 3.84,-2.86 H 185 v -2.24 z m 18.6,4.94 h 6.1 V 20 h -6.5 -2.22 V 6 h 2.62 5.92 v 2.42 h -5.92 v 3.36 h 4.5 v 2.36 h -4.5 z M 240.84,6 h 2.62 v 14 h -2 l -7.3,-9.22 V 20 h -2.62 V 6 h 2.02 l 7.28,9.24 z m 28.26,0 v 2.42 h -3.6 V 20 h -2.62 V 8.42 H 259.3 V 6 Z m 18.46,0 v 14 h -2.62 V 6 Z m 27.96,12.5 c -1.26,1.1 -2.9,1.7 -4.76,1.7 -3.84,0 -7.26,-2.96 -7.26,-7.2 0,-4.24 3.42,-7.2 7.26,-7.2 1.84,0 3.46,0.6 4.68,1.66 l -1.58,1.8 c -0.8,-0.6 -1.86,-1 -2.94,-1 -2.6,0 -4.7,1.98 -4.7,4.74 0,2.76 2.1,4.74 4.7,4.74 1.1,0 2.2,-0.42 3.02,-1.08 z m 46.8,1.5 -1.16,-2.7 h -6.92 l -1.16,2.7 h -2.78 l 6.24,-14 h 2.34 l 6.22,14 z m -7.16,-4.84 h 5.08 L 357.7,9.24 Z m 28,-9.16 v 14 h -2.62 V 6 Z"
           id="path2"
           style="fill:#000000;fill-opacity:0.2" /></g></g></g></svg>
