<?xml version="1.0" standalone="no"?>
<!DOCTYPE svg PUBLIC "-//W3C//DTD SVG 20010904//EN"
 "http://www.w3.org/TR/2001/REC-SVG-20010904/DTD/svg10.dtd">
<svg version="1.0" xmlns="http://www.w3.org/2000/svg"
 width="384.000000pt" height="384.000000pt" viewBox="0 0 384.000000 384.000000"
 preserveAspectRatio="xMidYMid meet">
<metadata>
Created by potrace 1.11, written by Peter Selinger 2001-2013
</metadata>
<g transform="translate(0.000000,384.000000) scale(0.100000,-0.100000)"
fill="#000000" stroke="none">
<path d="M1648 3744 c-516 -80 -970 -366 -1253 -789 -215 -322 -315 -649 -315
-1035 0 -386 100 -713 315 -1035 285 -426 740 -711 1261 -790 129 -19 399 -19
528 0 521 79 976 364 1261 790 215 322 315 649 315 1035 0 386 -100 713 -315
1035 -285 426 -740 711 -1261 790 -123 19 -416 18 -536 -1z m82 -185 c-99 -54
-96 -49 -87 -196 5 -70 13 -132 17 -137 5 -5 30 7 57 27 65 47 173 100 258
126 74 22 188 50 192 47 2 -1 -6 -83 -17 -182 -11 -98 -27 -257 -36 -352 l-17
-173 -42 2 c-49 3 -103 -25 -195 -102 -49 -41 -67 -65 -100 -134 -22 -47 -43
-99 -47 -116 -4 -21 -8 -27 -13 -18 -9 17 -24 243 -22 324 1 33 -7 155 -18
270 -12 116 -26 284 -33 375 l-12 165 -35 5 -35 6 55 29 c51 26 152 63 175 64
6 0 -15 -13 -45 -30z m428 -904 c83 -25 253 -146 333 -237 84 -95 111 -138
152 -236 31 -77 31 -78 35 -291 5 -242 11 -231 -82 -143 l-55 52 35 118 c19
64 32 123 29 130 -9 23 -34 12 -43 -20 -6 -18 -26 -77 -46 -131 -33 -92 -35
-101 -21 -127 25 -48 130 -120 174 -120 28 0 37 -40 21 -96 -17 -60 -38 -74
-90 -61 -60 16 -83 2 -143 -88 -52 -78 -55 -80 -98 -83 -25 -2 -92 8 -156 24
-92 23 -115 26 -125 15 -11 -10 -9 -16 10 -31 12 -10 27 -20 34 -22 6 -2 0
-15 -15 -31 l-25 -28 -21 27 c-12 15 -21 31 -21 35 0 15 -30 10 -36 -5 -3 -8
13 -51 36 -96 23 -45 38 -86 33 -90 -28 -25 -287 -193 -317 -205 -19 -8 -54
-15 -76 -15 -37 0 -40 2 -40 29 0 41 -15 49 -105 52 l-79 4 -9 -43 c-7 -39
-11 -43 -30 -38 -12 3 -32 6 -44 6 l-22 0 29 85 c16 47 31 104 35 128 6 45 1
56 -129 270 -46 74 -76 98 -76 59 0 -35 -171 -59 -184 -26 -7 18 9 86 31 127
l14 29 33 -39 c40 -45 70 -48 184 -14 41 13 76 21 78 18 2 -2 10 -60 18 -128
23 -191 34 -208 109 -165 l44 26 73 -30 c82 -34 93 -36 109 -17 13 16 3 30
-144 202 -55 65 -113 134 -128 154 l-28 36 43 19 c24 10 51 25 61 34 21 19 22
77 2 155 -8 32 -15 69 -15 82 0 52 -24 61 -183 69 -127 6 -151 5 -182 -10 -65
-31 -76 -72 -50 -184 5 -21 4 -22 -4 -8 -6 9 -16 40 -21 69 -8 43 -7 58 9 94
22 49 41 62 126 85 67 19 81 43 27 48 -27 3 -31 7 -27 25 2 12 9 45 14 73 19
94 49 157 113 233 57 68 165 167 174 159 8 -8 28 -231 29 -313 l0 -90 38 -3
c20 -2 37 -6 37 -10 0 -4 -11 -29 -25 -55 -25 -47 -26 -67 -2 -67 7 1 38 30
70 65 49 55 56 67 48 84 -6 11 -21 21 -33 23 -21 3 -19 6 17 30 69 47 75 54
84 104 23 117 93 227 189 294 65 45 112 51 200 25z m-525 -202 c-7 -2 -19 -2
-25 0 -7 3 -2 5 12 5 14 0 19 -2 13 -5z m-353 -513 c-11 -7 -4 -10 28 -10 23
0 42 5 42 10 0 6 25 10 55 10 42 0 56 -4 63 -17 14 -27 42 -157 42 -195 0 -30
-5 -36 -45 -56 -25 -12 -47 -22 -49 -22 -2 0 1 18 6 41 14 53 2 66 -46 48 -47
-17 -65 -3 -47 38 11 23 10 29 -5 40 -22 16 -49 1 -82 -48 -40 -59 -3 -135 73
-148 20 -3 35 -10 35 -15 -1 -5 4 -12 11 -16 13 -9 -85 -42 -158 -55 -74 -12
-100 39 -68 132 13 38 13 50 -1 109 -22 96 -17 125 26 146 37 19 148 26 120 8z
m100 -294 c0 -3 -4 -8 -10 -11 -5 -3 -10 -1 -10 4 0 6 5 11 10 11 6 0 10 -2
10 -4z m277 -373 c-3 -2 -32 7 -65 20 l-61 25 -40 -29 c-22 -16 -41 -26 -44
-22 -2 4 -10 55 -16 113 -6 58 -14 117 -16 131 -3 21 22 0 121 -103 69 -72
123 -132 121 -135z m943 159 c0 -4 -21 -30 -46 -57 -25 -28 -39 -39 -31 -25 8
14 22 40 31 58 15 28 46 45 46 24z m-290 -168 c23 -20 146 -26 161 -8 10 13
14 12 30 -2 11 -10 19 -23 19 -30 0 -7 29 -39 65 -72 36 -32 66 -68 67 -78 2
-21 -7 -130 -23 -267 -6 -48 -23 -132 -39 -187 -30 -108 -52 -142 -182 -272
l-58 -58 -72 0 c-40 1 -109 7 -153 16 -150 28 -155 28 -155 9 0 -9 13 -22 30
-28 17 -6 30 -14 30 -18 0 -6 -54 -29 -66 -29 -2 0 -22 38 -46 84 l-44 83 76
6 c120 9 183 38 152 69 -7 7 -37 5 -100 -8 -75 -15 -100 -16 -150 -7 -78 15
-109 39 -188 144 -36 48 -71 92 -79 99 -22 18 -19 28 14 45 l29 15 42 -83 c52
-103 81 -134 144 -152 96 -29 271 -9 302 33 10 14 18 11 63 -27 33 -28 54 -54
58 -72 3 -16 8 -29 12 -29 11 0 81 50 81 59 0 4 -18 24 -40 44 -44 39 -50 65
-26 121 12 29 23 75 52 214 3 18 11 22 39 22 29 0 36 -4 41 -25 8 -33 -10
-100 -53 -199 -31 -70 -33 -80 -20 -93 13 -14 17 -12 32 11 24 36 64 137 65
161 0 11 4 26 9 34 8 12 12 12 25 2 8 -7 25 -11 38 -9 30 4 46 51 54 166 l6
88 -27 18 c-22 15 -32 16 -47 7 -10 -6 -26 -11 -36 -11 -26 0 -94 56 -132 106
-31 43 -63 118 -53 127 7 7 34 -3 53 -19z m196 -303 c-3 -25 -12 -64 -20 -85
l-13 -39 -18 26 c-14 21 -16 38 -10 86 6 51 10 60 28 63 35 6 40 -2 33 -51z
m-511 -122 c-14 -85 -28 -164 -30 -177 -4 -17 3 -32 28 -57 19 -19 32 -37 29
-40 -9 -9 -119 -5 -171 6 -53 11 -51 9 -120 133 -22 39 -22 39 -1 33 24 -6 40
17 40 60 0 35 8 45 42 60 35 16 39 7 22 -42 -16 -47 -18 -85 -4 -85 10 0 25
49 36 116 3 23 9 45 13 50 10 15 134 104 138 100 2 -2 -8 -73 -22 -157z m265
-339 c0 -5 -2 -10 -4 -10 -3 0 -8 5 -11 10 -3 6 -1 10 4 10 6 0 11 -4 11 -10z"/>
<path d="M1724 1996 c-18 -8 -35 -19 -39 -25 -10 -17 42 -254 77 -348 38 -102
128 -153 308 -172 110 -12 144 -7 199 25 33 20 41 32 75 125 38 101 42 157 17
206 -36 71 -90 108 -199 136 -198 52 -387 75 -438 53z m183 -47 c294 -41 358
-67 398 -162 39 -93 -6 -241 -87 -283 -48 -25 -178 -21 -258 8 -39 15 -64 29
-62 37 1 7 -2 10 -8 6 -13 -8 -63 43 -57 59 3 7 1 19 -5 27 -8 11 -9 10 -4 -4
3 -10 2 -15 -3 -12 -16 9 -47 104 -71 212 -19 84 -21 105 -10 118 7 8 14 15
16 15 2 0 70 -9 151 -21z"/>
<path d="M1947 1805 c-44 -31 -67 -71 -67 -120 0 -93 148 -145 221 -79 29 26
44 83 27 100 -11 11 -21 11 -51 2 -32 -10 -40 -9 -54 5 -15 15 -15 21 -4 52
10 28 10 39 1 50 -17 21 -30 19 -73 -10z"/>
<path d="M1770 730 c0 -12 28 -21 35 -11 2 5 -4 11 -15 14 -11 3 -20 2 -20 -3z"/>
</g>
</svg>
