<?xml version="1.0" encoding="UTF-8" standalone="no"?>
<!-- Created with Inkscape (http://www.inkscape.org/) -->

<svg
   width="135.46666mm"
   height="135.46666mm"
   viewBox="0 0 135.46666 135.46666"
   version="1.1"
   id="svg1"
   xml:space="preserve"
   inkscape:version="1.3.2 (091e20e, 2023-11-25, custom)"
   sodipodi:docname="safari-pinned-tab.svg"
   xmlns:inkscape="http://www.inkscape.org/namespaces/inkscape"
   xmlns:sodipodi="http://sodipodi.sourceforge.net/DTD/sodipodi-0.dtd"
   xmlns="http://www.w3.org/2000/svg"
   xmlns:svg="http://www.w3.org/2000/svg"><sodipodi:namedview
     id="namedview1"
     pagecolor="#ffffff"
     bordercolor="#666666"
     borderopacity="1.0"
     inkscape:showpageshadow="2"
     inkscape:pageopacity="0.0"
     inkscape:pagecheckerboard="0"
     inkscape:deskcolor="#d1d1d1"
     inkscape:document-units="mm"
     inkscape:zoom="1.0482005"
     inkscape:cx="237.54997"
     inkscape:cy="266.17045"
     inkscape:window-width="1920"
     inkscape:window-height="1010"
     inkscape:window-x="1529"
     inkscape:window-y="-6"
     inkscape:window-maximized="1"
     inkscape:current-layer="layer1" /><defs
     id="defs1" /><g
     inkscape:label="Layer 1"
     inkscape:groupmode="layer"
     id="layer1"
     transform="translate(-44.712593,-63.989025)"><path
       style="fill:#000000"
       d="m 83.761434,173.03425 c -0.102478,-0.16582 -0.353423,-0.30148 -0.557658,-0.30148 -0.204234,0 -1.050688,-0.25418 -1.881009,-0.56484 -2.00376,-0.7497 -3.894837,-2.58253 -4.331059,-4.19766 -0.176864,-0.65484 -0.562117,-1.6507 -0.856118,-2.21301 -0.592373,-1.13298 -0.596515,-1.03244 0.306714,-7.44428 0.753851,-5.35144 1.060303,-6.19969 2.766386,-7.65724 0.776597,-0.66347 1.597425,-1.2063 1.824062,-1.2063 0.226637,0 0.749581,-0.36275 1.162099,-0.80612 0.412517,-0.44336 1.136985,-0.99271 1.609928,-1.22077 0.473743,-0.22845 0.859895,-0.61804 0.859895,-0.86756 0,-0.24909 0.297187,-0.73209 0.660415,-1.07332 0.363229,-0.34124 0.59438,-0.68647 0.513671,-0.76717 -0.08071,-0.0807 0.247182,-0.27956 0.728647,-0.44189 0.729365,-0.24591 1.020177,-0.2139 1.743336,0.19189 1.080469,0.60627 1.02752,0.61271 1.218445,-0.148 0.17071,-0.68016 1.468334,-1.30857 2.156683,-1.04442 0.215437,0.0827 0.463115,0.43483 0.550395,0.78258 0.242761,0.96724 0.5914,0.75727 0.921889,-0.55523 0.363008,-1.44163 2.269725,-3.396 2.650093,-2.71632 0.121687,0.21744 0.533065,0.59966 0.914173,0.84937 0.667369,0.43728 0.70757,0.43311 1.090046,-0.11295 0.271495,-0.38761 0.619205,-0.54127 1.099144,-0.48572 0.668467,0.0774 0.69791,0.14433 0.616004,1.401 -0.04731,0.72586 -0.182426,1.44024 -0.300258,1.5875 -0.266161,0.33264 0.05746,1.23048 0.608289,1.68763 0.348394,0.28915 0.561384,0.22522 1.352804,-0.40606 0.59523,-0.47479 0.98311,-1.03999 1.0589,-1.54298 0.0658,-0.43657 0.19346,-1.25815 0.28375,-1.82575 0.16964,-1.06645 1.35398,-2.53988 2.04155,-2.53988 0.20323,0 0.62832,-0.29766 0.94464,-0.66146 0.32751,-0.37667 0.86068,-0.66146 1.23834,-0.66146 0.79662,0 0.84917,0.51184 0.28983,2.82291 -0.74488,3.07764 -0.73978,2.99793 -0.19162,2.99793 0.40387,0 2.41708,-1.84374 2.41708,-2.21361 0,-0.0525 0.12086,-0.73675 0.26856,-1.52059 0.32749,-1.73786 1.06372,-3.36382 1.84091,-4.06564 0.31903,-0.28809 0.74792,-0.92557 0.9531,-1.41662 0.35473,-0.849 0.76767,-1.42293 2.65339,-3.68786 0.53846,-0.64675 0.81932,-1.27101 0.8158,-1.81327 -0.003,-0.45482 0.26576,-1.49498 0.59714,-2.31145 l 0.60252,-1.48449 -0.75686,-0.9011 c -0.41627,-0.4956 -1.01689,-1.04894 -1.33471,-1.22965 -0.65444,-0.37209 -1.13168,-1.35904 -1.21663,-2.51606 -0.0583,-0.79449 0.058,-0.85208 0.98997,-0.48992 0.48478,0.18839 0.47841,0.13391 -0.0983,-0.84029 -1.29456,-2.18681 -2.38519,-5.58032 -2.49166,-7.75287 -0.14422,-2.94272 0.55764,-6.8657 1.60736,-8.98409 0.55489,-1.1198 2.36884,-2.63729 4.56526,-3.81916 5.47952,-2.948464 6.35468,-3.64675 7.14034,-5.69721 0.31849,-0.83123 0.69033,-1.790637 0.8263,-2.132015 1.38281,-3.471807 7.685,-6.419279 10.55365,-4.935841 2.13956,1.106411 2.84993,3.530103 1.818,6.202836 -0.9165,2.373784 -1.76734,3.06094 -5.26298,4.250504 -3.29773,1.122216 -3.89627,1.514804 -3.48398,2.285176 0.4457,0.832812 1.14019,1.32399 3.62221,2.56183 1.30968,0.65317 2.69288,1.52598 3.07377,1.93959 0.38089,0.4136 1.00911,1.68491 1.39606,2.82513 0.38695,1.14022 0.98927,2.637 1.33851,3.32619 1.21597,2.3996 1.44255,3.97286 1.33725,9.28506 -0.065,3.28094 -0.22926,5.37459 -0.49807,6.35 -0.84289,3.05854 -1.02162,3.58362 -1.35086,3.96875 -0.1866,0.21828 -0.43029,0.69453 -0.54152,1.05833 -0.32357,1.0583 -1.4119,2.6771 -2.7347,4.06765 -1.23129,1.29435 -6.462,4.88458 -9.42878,6.47167 -0.87312,0.46709 -2.12328,1.3308 -2.77812,1.91937 -3.66623,3.29518 -6.91702,5.65729 -8.97331,6.52027 -0.90185,0.37848 -3.282,2.55179 -7.17702,6.55334 -1.90879,1.96099 -3.48639,3.89545 -8.51597,10.44235 -1.058378,1.37766 -2.234606,2.80641 -2.613839,3.175 -1.083352,1.05292 -3.910688,2.61813 -5.774945,3.19701 -2.072072,0.6434 -6.203406,0.99594 -6.477322,0.55274 z m 58.484586,-52.49054 c -0.34388,-1.28317 -0.173,-1.99824 0.64126,-2.68339 0.74457,-0.62651 0.87444,-0.65295 1.65365,-0.3366 0.67582,0.27437 0.86273,0.51864 0.93083,1.21651 0.0699,0.71624 -0.0728,1.00838 -0.79375,1.62524 -1.09651,0.93818 -2.20653,1.01953 -2.43199,0.17824 z m 1.31009,-7.43345 c -0.67966,-0.54384 -0.76628,-0.77175 -0.72347,-1.90352 0.0267,-0.70714 0.22131,-1.52987 0.43237,-1.82828 0.99041,-1.4003 1.19467,-1.53994 2.38267,-1.62888 1.11798,-0.0837 1.24921,-0.0264 1.72232,0.75153 0.37636,0.61887 0.47995,1.16065 0.39076,2.04366 -0.15969,1.58096 -0.80659,2.39283 -2.25058,2.82453 -0.65008,0.19434 -1.18197,0.35457 -1.18197,0.35606 0,0.001 -0.34744,-0.27531 -0.7721,-0.6151 z m 0.44058,-7.08009 c -0.76568,-0.28324 -1.91744,-2.05688 -1.91744,-2.95273 0,-1.56589 1.6745,-3.898833 2.79843,-3.898833 0.20712,0 0.37657,-0.106156 0.37657,-0.235901 0,-0.129745 0.30622,-0.312757 0.68049,-0.406692 0.88012,-0.220895 2.4355,0.712224 2.65678,1.593876 0.29775,1.18633 -0.15504,2.99082 -0.98872,3.94034 -1.08873,1.23999 -2.89641,2.22247 -3.60611,1.95994 z m -1.38827,-7.542479 c -1.6836,-0.567087 -2.38125,-1.427524 -2.38125,-2.936885 0,-1.473651 0.72574,-2.54136 2.54768,-3.748166 1.18255,-0.783287 2.74399,-1.112968 2.74399,-0.579363 0,0.135715 0.21693,0.315605 0.48206,0.399755 0.26514,0.08415 0.74696,0.624312 1.07071,1.200358 0.52228,0.929264 0.5552,1.175057 0.29197,2.179932 -0.32948,1.257773 -1.4312,3.110907 -2.08337,3.504298 -0.68354,0.412317 -1.40448,0.406939 -2.67179,-0.01993 z"
       id="path1" /></g></svg>
